<svg xmlns="http://www.w3.org/2000/svg" version="1.1" xmlns:xlink="http://www.w3.org/1999/xlink" xmlns:svgjs="http://svgjs.com/svgjs" width="1322.825" height="415.745"><rect width="1322.825" height="415.745" rx="37.795" yx="37.795" fill="none" stroke-width="1.88975" stroke="black"></rect><g><circle r="11.3385" fill="none" stroke-width="1.88975" stroke="black" cx="37.795" cy="37.795"></circle><circle r="11.3385" fill="none" stroke-width="1.88975" stroke="black" cx="1285.03" cy="37.795"></circle><circle r="11.3385" fill="none" stroke-width="1.88975" stroke="black" cx="37.795" cy="377.95"></circle><circle r="11.3385" fill="none" stroke-width="1.88975" stroke="black" cx="1285.03" cy="377.95"></circle></g><g><rect width="34.0155" height="34.0155" x="58.58224999999993" y="58.582250000000016" fill="none" stroke-width="1.88975" stroke="black"></rect><rect width="34.0155" height="34.0155" x="58.58224999999993" y="96.37725000000002" fill="none" stroke-width="1.88975" stroke="black"></rect><rect width="34.0155" height="34.0155" x="58.58224999999993" y="134.17225000000002" fill="none" stroke-width="1.88975" stroke="black"></rect><rect width="34.0155" height="34.0155" x="58.58224999999993" y="171.96725" fill="none" stroke-width="1.88975" stroke="black"></rect><rect width="34.0155" height="34.0155" x="58.58224999999993" y="209.76225000000002" fill="none" stroke-width="1.88975" stroke="black"></rect><rect width="34.0155" height="34.0155" x="58.58224999999993" y="247.55725000000004" fill="none" stroke-width="1.88975" stroke="black"></rect><rect width="34.0155" height="34.0155" x="58.58224999999993" y="285.35225" fill="none" stroke-width="1.88975" stroke="black"></rect><rect width="34.0155" height="34.0155" x="58.58224999999993" y="323.14725" fill="none" stroke-width="1.88975" stroke="black"></rect><rect width="34.0155" height="34.0155" x="96.37724999999993" y="58.582250000000016" fill="none" stroke-width="1.88975" stroke="black"></rect><rect width="34.0155" height="34.0155" x="96.37724999999993" y="96.37725000000002" fill="none" stroke-width="1.88975" stroke="black"></rect><rect width="34.0155" height="34.0155" x="96.37724999999993" y="134.17225000000002" fill="none" stroke-width="1.88975" stroke="black"></rect><rect width="34.0155" height="34.0155" x="96.37724999999993" y="171.96725" fill="none" stroke-width="1.88975" stroke="black"></rect><rect width="34.0155" height="34.0155" x="96.37724999999993" y="209.76225000000002" fill="none" stroke-width="1.88975" stroke="black"></rect><rect width="34.0155" height="34.0155" x="96.37724999999993" y="247.55725000000004" fill="none" stroke-width="1.88975" stroke="black"></rect><rect width="34.0155" height="34.0155" x="96.37724999999993" y="285.35225" fill="none" stroke-width="1.88975" stroke="black"></rect><rect width="34.0155" height="34.0155" x="96.37724999999993" y="323.14725" fill="none" stroke-width="1.88975" stroke="black"></rect><rect width="34.0155" height="34.0155" x="134.17224999999993" y="58.582250000000016" fill="none" stroke-width="1.88975" stroke="black"></rect><rect width="34.0155" height="34.0155" x="134.17224999999993" y="96.37725000000002" fill="none" stroke-width="1.88975" stroke="black"></rect><rect width="34.0155" height="34.0155" x="134.17224999999993" y="134.17225000000002" fill="none" stroke-width="1.88975" stroke="black"></rect><rect width="34.0155" height="34.0155" x="134.17224999999993" y="171.96725" fill="none" stroke-width="1.88975" stroke="black"></rect><rect width="34.0155" height="34.0155" x="134.17224999999993" y="209.76225000000002" fill="none" stroke-width="1.88975" stroke="black"></rect><rect width="34.0155" height="34.0155" x="134.17224999999993" y="247.55725000000004" fill="none" stroke-width="1.88975" stroke="black"></rect><rect width="34.0155" height="34.0155" x="134.17224999999993" y="285.35225" fill="none" stroke-width="1.88975" stroke="black"></rect><rect width="34.0155" height="34.0155" x="134.17224999999993" y="323.14725" fill="none" stroke-width="1.88975" stroke="black"></rect><rect width="34.0155" height="34.0155" x="171.96724999999992" y="58.582250000000016" fill="none" stroke-width="1.88975" stroke="black"></rect><rect width="34.0155" height="34.0155" x="171.96724999999992" y="96.37725000000002" fill="none" stroke-width="1.88975" stroke="black"></rect><rect width="34.0155" height="34.0155" x="171.96724999999992" y="134.17225000000002" fill="none" stroke-width="1.88975" stroke="black"></rect><rect width="34.0155" height="34.0155" x="171.96724999999992" y="171.96725" fill="none" stroke-width="1.88975" stroke="black"></rect><rect width="34.0155" height="34.0155" x="171.96724999999992" y="209.76225000000002" fill="none" stroke-width="1.88975" stroke="black"></rect><rect width="34.0155" height="34.0155" x="171.96724999999992" y="247.55725000000004" fill="none" stroke-width="1.88975" stroke="black"></rect><rect width="34.0155" height="34.0155" x="171.96724999999992" y="285.35225" fill="none" stroke-width="1.88975" stroke="black"></rect><rect width="34.0155" height="34.0155" x="171.96724999999992" y="323.14725" fill="none" stroke-width="1.88975" stroke="black"></rect><rect width="34.0155" height="34.0155" x="209.76224999999994" y="58.582250000000016" fill="none" stroke-width="1.88975" stroke="black"></rect><rect width="34.0155" height="34.0155" x="209.76224999999994" y="96.37725000000002" fill="none" stroke-width="1.88975" stroke="black"></rect><rect width="34.0155" height="34.0155" x="209.76224999999994" y="134.17225000000002" fill="none" stroke-width="1.88975" stroke="black"></rect><rect width="34.0155" height="34.0155" x="209.76224999999994" y="171.96725" fill="none" stroke-width="1.88975" stroke="black"></rect><rect width="34.0155" height="34.0155" x="209.76224999999994" y="209.76225000000002" fill="none" stroke-width="1.88975" stroke="black"></rect><rect width="34.0155" height="34.0155" x="209.76224999999994" y="247.55725000000004" fill="none" stroke-width="1.88975" stroke="black"></rect><rect width="34.0155" height="34.0155" x="209.76224999999994" y="285.35225" fill="none" stroke-width="1.88975" stroke="black"></rect><rect width="34.0155" height="34.0155" x="209.76224999999994" y="323.14725" fill="none" stroke-width="1.88975" stroke="black"></rect><rect width="34.0155" height="34.0155" x="247.55724999999995" y="58.582250000000016" fill="none" stroke-width="1.88975" stroke="black"></rect><rect width="34.0155" height="34.0155" x="247.55724999999995" y="96.37725000000002" fill="none" stroke-width="1.88975" stroke="black"></rect><rect width="34.0155" height="34.0155" x="247.55724999999995" y="134.17225000000002" fill="none" stroke-width="1.88975" stroke="black"></rect><rect width="34.0155" height="34.0155" x="247.55724999999995" y="171.96725" fill="none" stroke-width="1.88975" stroke="black"></rect><rect width="34.0155" height="34.0155" x="247.55724999999995" y="209.76225000000002" fill="none" stroke-width="1.88975" stroke="black"></rect><rect width="34.0155" height="34.0155" x="247.55724999999995" y="247.55725000000004" fill="none" stroke-width="1.88975" stroke="black"></rect><rect width="34.0155" height="34.0155" x="247.55724999999995" y="285.35225" fill="none" stroke-width="1.88975" stroke="black"></rect><rect width="34.0155" height="34.0155" x="247.55724999999995" y="323.14725" fill="none" stroke-width="1.88975" stroke="black"></rect><rect width="34.0155" height="34.0155" x="285.3522499999999" y="58.582250000000016" fill="none" stroke-width="1.88975" stroke="black"></rect><rect width="34.0155" height="34.0155" x="285.3522499999999" y="96.37725000000002" fill="none" stroke-width="1.88975" stroke="black"></rect><rect width="34.0155" height="34.0155" x="285.3522499999999" y="134.17225000000002" fill="none" stroke-width="1.88975" stroke="black"></rect><rect width="34.0155" height="34.0155" x="285.3522499999999" y="171.96725" fill="none" stroke-width="1.88975" stroke="black"></rect><rect width="34.0155" height="34.0155" x="285.3522499999999" y="209.76225000000002" fill="none" stroke-width="1.88975" stroke="black"></rect><rect width="34.0155" height="34.0155" x="285.3522499999999" y="247.55725000000004" fill="none" stroke-width="1.88975" stroke="black"></rect><rect width="34.0155" height="34.0155" x="285.3522499999999" y="285.35225" fill="none" stroke-width="1.88975" stroke="black"></rect><rect width="34.0155" height="34.0155" x="285.3522499999999" y="323.14725" fill="none" stroke-width="1.88975" stroke="black"></rect><rect width="34.0155" height="34.0155" x="323.14724999999993" y="58.582250000000016" fill="none" stroke-width="1.88975" stroke="black"></rect><rect width="34.0155" height="34.0155" x="323.14724999999993" y="96.37725000000002" fill="none" stroke-width="1.88975" stroke="black"></rect><rect width="34.0155" height="34.0155" x="323.14724999999993" y="134.17225000000002" fill="none" stroke-width="1.88975" stroke="black"></rect><rect width="34.0155" height="34.0155" x="323.14724999999993" y="171.96725" fill="none" stroke-width="1.88975" stroke="black"></rect><rect width="34.0155" height="34.0155" x="323.14724999999993" y="209.76225000000002" fill="none" stroke-width="1.88975" stroke="black"></rect><rect width="34.0155" height="34.0155" x="323.14724999999993" y="247.55725000000004" fill="none" stroke-width="1.88975" stroke="black"></rect><rect width="34.0155" height="34.0155" x="323.14724999999993" y="285.35225" fill="none" stroke-width="1.88975" stroke="black"></rect><rect width="34.0155" height="34.0155" x="323.14724999999993" y="323.14725" fill="none" stroke-width="1.88975" stroke="black"></rect><rect width="34.0155" height="34.0155" x="360.94224999999994" y="58.582250000000016" fill="none" stroke-width="1.88975" stroke="black"></rect><rect width="34.0155" height="34.0155" x="360.94224999999994" y="96.37725000000002" fill="none" stroke-width="1.88975" stroke="black"></rect><rect width="34.0155" height="34.0155" x="360.94224999999994" y="134.17225000000002" fill="none" stroke-width="1.88975" stroke="black"></rect><rect width="34.0155" height="34.0155" x="360.94224999999994" y="171.96725" fill="none" stroke-width="1.88975" stroke="black"></rect><rect width="34.0155" height="34.0155" x="360.94224999999994" y="209.76225000000002" fill="none" stroke-width="1.88975" stroke="black"></rect><rect width="34.0155" height="34.0155" x="360.94224999999994" y="247.55725000000004" fill="none" stroke-width="1.88975" stroke="black"></rect><rect width="34.0155" height="34.0155" x="360.94224999999994" y="285.35225" fill="none" stroke-width="1.88975" stroke="black"></rect><rect width="34.0155" height="34.0155" x="360.94224999999994" y="323.14725" fill="none" stroke-width="1.88975" stroke="black"></rect><rect width="34.0155" height="34.0155" x="398.7372499999999" y="58.582250000000016" fill="none" stroke-width="1.88975" stroke="black"></rect><rect width="34.0155" height="34.0155" x="398.7372499999999" y="96.37725000000002" fill="none" stroke-width="1.88975" stroke="black"></rect><rect width="34.0155" height="34.0155" x="398.7372499999999" y="134.17225000000002" fill="none" stroke-width="1.88975" stroke="black"></rect><rect width="34.0155" height="34.0155" x="398.7372499999999" y="171.96725" fill="none" stroke-width="1.88975" stroke="black"></rect><rect width="34.0155" height="34.0155" x="398.7372499999999" y="209.76225000000002" fill="none" stroke-width="1.88975" stroke="black"></rect><rect width="34.0155" height="34.0155" x="398.7372499999999" y="247.55725000000004" fill="none" stroke-width="1.88975" stroke="black"></rect><rect width="34.0155" height="34.0155" x="398.7372499999999" y="285.35225" fill="none" stroke-width="1.88975" stroke="black"></rect><rect width="34.0155" height="34.0155" x="398.7372499999999" y="323.14725" fill="none" stroke-width="1.88975" stroke="black"></rect><rect width="34.0155" height="34.0155" x="436.53225" y="58.582250000000016" fill="none" stroke-width="1.88975" stroke="black"></rect><rect width="34.0155" height="34.0155" x="436.53225" y="96.37725000000002" fill="none" stroke-width="1.88975" stroke="black"></rect><rect width="34.0155" height="34.0155" x="436.53225" y="134.17225000000002" fill="none" stroke-width="1.88975" stroke="black"></rect><rect width="34.0155" height="34.0155" x="436.53225" y="171.96725" fill="none" stroke-width="1.88975" stroke="black"></rect><rect width="34.0155" height="34.0155" x="436.53225" y="209.76225000000002" fill="none" stroke-width="1.88975" stroke="black"></rect><rect width="34.0155" height="34.0155" x="436.53225" y="247.55725000000004" fill="none" stroke-width="1.88975" stroke="black"></rect><rect width="34.0155" height="34.0155" x="436.53225" y="285.35225" fill="none" stroke-width="1.88975" stroke="black"></rect><rect width="34.0155" height="34.0155" x="436.53225" y="323.14725" fill="none" stroke-width="1.88975" stroke="black"></rect><rect width="34.0155" height="34.0155" x="474.32725" y="58.582250000000016" fill="none" stroke-width="1.88975" stroke="black"></rect><rect width="34.0155" height="34.0155" x="474.32725" y="96.37725000000002" fill="none" stroke-width="1.88975" stroke="black"></rect><rect width="34.0155" height="34.0155" x="474.32725" y="134.17225000000002" fill="none" stroke-width="1.88975" stroke="black"></rect><rect width="34.0155" height="34.0155" x="474.32725" y="171.96725" fill="none" stroke-width="1.88975" stroke="black"></rect><rect width="34.0155" height="34.0155" x="474.32725" y="209.76225000000002" fill="none" stroke-width="1.88975" stroke="black"></rect><rect width="34.0155" height="34.0155" x="474.32725" y="247.55725000000004" fill="none" stroke-width="1.88975" stroke="black"></rect><rect width="34.0155" height="34.0155" x="474.32725" y="285.35225" fill="none" stroke-width="1.88975" stroke="black"></rect><rect width="34.0155" height="34.0155" x="474.32725" y="323.14725" fill="none" stroke-width="1.88975" stroke="black"></rect><rect width="34.0155" height="34.0155" x="512.1222499999999" y="58.582250000000016" fill="none" stroke-width="1.88975" stroke="black"></rect><rect width="34.0155" height="34.0155" x="512.1222499999999" y="96.37725000000002" fill="none" stroke-width="1.88975" stroke="black"></rect><rect width="34.0155" height="34.0155" x="512.1222499999999" y="134.17225000000002" fill="none" stroke-width="1.88975" stroke="black"></rect><rect width="34.0155" height="34.0155" x="512.1222499999999" y="171.96725" fill="none" stroke-width="1.88975" stroke="black"></rect><rect width="34.0155" height="34.0155" x="512.1222499999999" y="209.76225000000002" fill="none" stroke-width="1.88975" stroke="black"></rect><rect width="34.0155" height="34.0155" x="512.1222499999999" y="247.55725000000004" fill="none" stroke-width="1.88975" stroke="black"></rect><rect width="34.0155" height="34.0155" x="512.1222499999999" y="285.35225" fill="none" stroke-width="1.88975" stroke="black"></rect><rect width="34.0155" height="34.0155" x="512.1222499999999" y="323.14725" fill="none" stroke-width="1.88975" stroke="black"></rect><rect width="34.0155" height="34.0155" x="549.91725" y="58.582250000000016" fill="none" stroke-width="1.88975" stroke="black"></rect><rect width="34.0155" height="34.0155" x="549.91725" y="96.37725000000002" fill="none" stroke-width="1.88975" stroke="black"></rect><rect width="34.0155" height="34.0155" x="549.91725" y="134.17225000000002" fill="none" stroke-width="1.88975" stroke="black"></rect><rect width="34.0155" height="34.0155" x="549.91725" y="171.96725" fill="none" stroke-width="1.88975" stroke="black"></rect><rect width="34.0155" height="34.0155" x="549.91725" y="209.76225000000002" fill="none" stroke-width="1.88975" stroke="black"></rect><rect width="34.0155" height="34.0155" x="549.91725" y="247.55725000000004" fill="none" stroke-width="1.88975" stroke="black"></rect><rect width="34.0155" height="34.0155" x="549.91725" y="285.35225" fill="none" stroke-width="1.88975" stroke="black"></rect><rect width="34.0155" height="34.0155" x="549.91725" y="323.14725" fill="none" stroke-width="1.88975" stroke="black"></rect><rect width="34.0155" height="34.0155" x="587.7122499999999" y="58.582250000000016" fill="none" stroke-width="1.88975" stroke="black"></rect><rect width="34.0155" height="34.0155" x="587.7122499999999" y="96.37725000000002" fill="none" stroke-width="1.88975" stroke="black"></rect><rect width="34.0155" height="34.0155" x="587.7122499999999" y="134.17225000000002" fill="none" stroke-width="1.88975" stroke="black"></rect><rect width="34.0155" height="34.0155" x="587.7122499999999" y="171.96725" fill="none" stroke-width="1.88975" stroke="black"></rect><rect width="34.0155" height="34.0155" x="587.7122499999999" y="209.76225000000002" fill="none" stroke-width="1.88975" stroke="black"></rect><rect width="34.0155" height="34.0155" x="587.7122499999999" y="247.55725000000004" fill="none" stroke-width="1.88975" stroke="black"></rect><rect width="34.0155" height="34.0155" x="587.7122499999999" y="285.35225" fill="none" stroke-width="1.88975" stroke="black"></rect><rect width="34.0155" height="34.0155" x="587.7122499999999" y="323.14725" fill="none" stroke-width="1.88975" stroke="black"></rect><rect width="34.0155" height="34.0155" x="625.50725" y="58.582250000000016" fill="none" stroke-width="1.88975" stroke="black"></rect><rect width="34.0155" height="34.0155" x="625.50725" y="96.37725000000002" fill="none" stroke-width="1.88975" stroke="black"></rect><rect width="34.0155" height="34.0155" x="625.50725" y="134.17225000000002" fill="none" stroke-width="1.88975" stroke="black"></rect><rect width="34.0155" height="34.0155" x="625.50725" y="171.96725" fill="none" stroke-width="1.88975" stroke="black"></rect><rect width="34.0155" height="34.0155" x="625.50725" y="209.76225000000002" fill="none" stroke-width="1.88975" stroke="black"></rect><rect width="34.0155" height="34.0155" x="625.50725" y="247.55725000000004" fill="none" stroke-width="1.88975" stroke="black"></rect><rect width="34.0155" height="34.0155" x="625.50725" y="285.35225" fill="none" stroke-width="1.88975" stroke="black"></rect><rect width="34.0155" height="34.0155" x="625.50725" y="323.14725" fill="none" stroke-width="1.88975" stroke="black"></rect><rect width="34.0155" height="34.0155" x="663.30225" y="58.582250000000016" fill="none" stroke-width="1.88975" stroke="black"></rect><rect width="34.0155" height="34.0155" x="663.30225" y="96.37725000000002" fill="none" stroke-width="1.88975" stroke="black"></rect><rect width="34.0155" height="34.0155" x="663.30225" y="134.17225000000002" fill="none" stroke-width="1.88975" stroke="black"></rect><rect width="34.0155" height="34.0155" x="663.30225" y="171.96725" fill="none" stroke-width="1.88975" stroke="black"></rect><rect width="34.0155" height="34.0155" x="663.30225" y="209.76225000000002" fill="none" stroke-width="1.88975" stroke="black"></rect><rect width="34.0155" height="34.0155" x="663.30225" y="247.55725000000004" fill="none" stroke-width="1.88975" stroke="black"></rect><rect width="34.0155" height="34.0155" x="663.30225" y="285.35225" fill="none" stroke-width="1.88975" stroke="black"></rect><rect width="34.0155" height="34.0155" x="663.30225" y="323.14725" fill="none" stroke-width="1.88975" stroke="black"></rect><rect width="34.0155" height="34.0155" x="701.0972499999999" y="58.582250000000016" fill="none" stroke-width="1.88975" stroke="black"></rect><rect width="34.0155" height="34.0155" x="701.0972499999999" y="96.37725000000002" fill="none" stroke-width="1.88975" stroke="black"></rect><rect width="34.0155" height="34.0155" x="701.0972499999999" y="134.17225000000002" fill="none" stroke-width="1.88975" stroke="black"></rect><rect width="34.0155" height="34.0155" x="701.0972499999999" y="171.96725" fill="none" stroke-width="1.88975" stroke="black"></rect><rect width="34.0155" height="34.0155" x="701.0972499999999" y="209.76225000000002" fill="none" stroke-width="1.88975" stroke="black"></rect><rect width="34.0155" height="34.0155" x="701.0972499999999" y="247.55725000000004" fill="none" stroke-width="1.88975" stroke="black"></rect><rect width="34.0155" height="34.0155" x="701.0972499999999" y="285.35225" fill="none" stroke-width="1.88975" stroke="black"></rect><rect width="34.0155" height="34.0155" x="701.0972499999999" y="323.14725" fill="none" stroke-width="1.88975" stroke="black"></rect><rect width="34.0155" height="34.0155" x="738.8922499999999" y="58.582250000000016" fill="none" stroke-width="1.88975" stroke="black"></rect><rect width="34.0155" height="34.0155" x="738.8922499999999" y="96.37725000000002" fill="none" stroke-width="1.88975" stroke="black"></rect><rect width="34.0155" height="34.0155" x="738.8922499999999" y="134.17225000000002" fill="none" stroke-width="1.88975" stroke="black"></rect><rect width="34.0155" height="34.0155" x="738.8922499999999" y="171.96725" fill="none" stroke-width="1.88975" stroke="black"></rect><rect width="34.0155" height="34.0155" x="738.8922499999999" y="209.76225000000002" fill="none" stroke-width="1.88975" stroke="black"></rect><rect width="34.0155" height="34.0155" x="738.8922499999999" y="247.55725000000004" fill="none" stroke-width="1.88975" stroke="black"></rect><rect width="34.0155" height="34.0155" x="738.8922499999999" y="285.35225" fill="none" stroke-width="1.88975" stroke="black"></rect><rect width="34.0155" height="34.0155" x="738.8922499999999" y="323.14725" fill="none" stroke-width="1.88975" stroke="black"></rect><rect width="34.0155" height="34.0155" x="776.6872500000001" y="58.582250000000016" fill="none" stroke-width="1.88975" stroke="black"></rect><rect width="34.0155" height="34.0155" x="776.6872500000001" y="96.37725000000002" fill="none" stroke-width="1.88975" stroke="black"></rect><rect width="34.0155" height="34.0155" x="776.6872500000001" y="134.17225000000002" fill="none" stroke-width="1.88975" stroke="black"></rect><rect width="34.0155" height="34.0155" x="776.6872500000001" y="171.96725" fill="none" stroke-width="1.88975" stroke="black"></rect><rect width="34.0155" height="34.0155" x="776.6872500000001" y="209.76225000000002" fill="none" stroke-width="1.88975" stroke="black"></rect><rect width="34.0155" height="34.0155" x="776.6872500000001" y="247.55725000000004" fill="none" stroke-width="1.88975" stroke="black"></rect><rect width="34.0155" height="34.0155" x="776.6872500000001" y="285.35225" fill="none" stroke-width="1.88975" stroke="black"></rect><rect width="34.0155" height="34.0155" x="776.6872500000001" y="323.14725" fill="none" stroke-width="1.88975" stroke="black"></rect><rect width="34.0155" height="34.0155" x="814.48225" y="58.582250000000016" fill="none" stroke-width="1.88975" stroke="black"></rect><rect width="34.0155" height="34.0155" x="814.48225" y="96.37725000000002" fill="none" stroke-width="1.88975" stroke="black"></rect><rect width="34.0155" height="34.0155" x="814.48225" y="134.17225000000002" fill="none" stroke-width="1.88975" stroke="black"></rect><rect width="34.0155" height="34.0155" x="814.48225" y="171.96725" fill="none" stroke-width="1.88975" stroke="black"></rect><rect width="34.0155" height="34.0155" x="814.48225" y="209.76225000000002" fill="none" stroke-width="1.88975" stroke="black"></rect><rect width="34.0155" height="34.0155" x="814.48225" y="247.55725000000004" fill="none" stroke-width="1.88975" stroke="black"></rect><rect width="34.0155" height="34.0155" x="814.48225" y="285.35225" fill="none" stroke-width="1.88975" stroke="black"></rect><rect width="34.0155" height="34.0155" x="814.48225" y="323.14725" fill="none" stroke-width="1.88975" stroke="black"></rect><rect width="34.0155" height="34.0155" x="852.27725" y="58.582250000000016" fill="none" stroke-width="1.88975" stroke="black"></rect><rect width="34.0155" height="34.0155" x="852.27725" y="96.37725000000002" fill="none" stroke-width="1.88975" stroke="black"></rect><rect width="34.0155" height="34.0155" x="852.27725" y="134.17225000000002" fill="none" stroke-width="1.88975" stroke="black"></rect><rect width="34.0155" height="34.0155" x="852.27725" y="171.96725" fill="none" stroke-width="1.88975" stroke="black"></rect><rect width="34.0155" height="34.0155" x="852.27725" y="209.76225000000002" fill="none" stroke-width="1.88975" stroke="black"></rect><rect width="34.0155" height="34.0155" x="852.27725" y="247.55725000000004" fill="none" stroke-width="1.88975" stroke="black"></rect><rect width="34.0155" height="34.0155" x="852.27725" y="285.35225" fill="none" stroke-width="1.88975" stroke="black"></rect><rect width="34.0155" height="34.0155" x="852.27725" y="323.14725" fill="none" stroke-width="1.88975" stroke="black"></rect><rect width="34.0155" height="34.0155" x="890.07225" y="58.582250000000016" fill="none" stroke-width="1.88975" stroke="black"></rect><rect width="34.0155" height="34.0155" x="890.07225" y="96.37725000000002" fill="none" stroke-width="1.88975" stroke="black"></rect><rect width="34.0155" height="34.0155" x="890.07225" y="134.17225000000002" fill="none" stroke-width="1.88975" stroke="black"></rect><rect width="34.0155" height="34.0155" x="890.07225" y="171.96725" fill="none" stroke-width="1.88975" stroke="black"></rect><rect width="34.0155" height="34.0155" x="890.07225" y="209.76225000000002" fill="none" stroke-width="1.88975" stroke="black"></rect><rect width="34.0155" height="34.0155" x="890.07225" y="247.55725000000004" fill="none" stroke-width="1.88975" stroke="black"></rect><rect width="34.0155" height="34.0155" x="890.07225" y="285.35225" fill="none" stroke-width="1.88975" stroke="black"></rect><rect width="34.0155" height="34.0155" x="890.07225" y="323.14725" fill="none" stroke-width="1.88975" stroke="black"></rect><rect width="34.0155" height="34.0155" x="927.86725" y="58.582250000000016" fill="none" stroke-width="1.88975" stroke="black"></rect><rect width="34.0155" height="34.0155" x="927.86725" y="96.37725000000002" fill="none" stroke-width="1.88975" stroke="black"></rect><rect width="34.0155" height="34.0155" x="927.86725" y="134.17225000000002" fill="none" stroke-width="1.88975" stroke="black"></rect><rect width="34.0155" height="34.0155" x="927.86725" y="171.96725" fill="none" stroke-width="1.88975" stroke="black"></rect><rect width="34.0155" height="34.0155" x="927.86725" y="209.76225000000002" fill="none" stroke-width="1.88975" stroke="black"></rect><rect width="34.0155" height="34.0155" x="927.86725" y="247.55725000000004" fill="none" stroke-width="1.88975" stroke="black"></rect><rect width="34.0155" height="34.0155" x="927.86725" y="285.35225" fill="none" stroke-width="1.88975" stroke="black"></rect><rect width="34.0155" height="34.0155" x="927.86725" y="323.14725" fill="none" stroke-width="1.88975" stroke="black"></rect><rect width="34.0155" height="34.0155" x="965.66225" y="58.582250000000016" fill="none" stroke-width="1.88975" stroke="black"></rect><rect width="34.0155" height="34.0155" x="965.66225" y="96.37725000000002" fill="none" stroke-width="1.88975" stroke="black"></rect><rect width="34.0155" height="34.0155" x="965.66225" y="134.17225000000002" fill="none" stroke-width="1.88975" stroke="black"></rect><rect width="34.0155" height="34.0155" x="965.66225" y="171.96725" fill="none" stroke-width="1.88975" stroke="black"></rect><rect width="34.0155" height="34.0155" x="965.66225" y="209.76225000000002" fill="none" stroke-width="1.88975" stroke="black"></rect><rect width="34.0155" height="34.0155" x="965.66225" y="247.55725000000004" fill="none" stroke-width="1.88975" stroke="black"></rect><rect width="34.0155" height="34.0155" x="965.66225" y="285.35225" fill="none" stroke-width="1.88975" stroke="black"></rect><rect width="34.0155" height="34.0155" x="965.66225" y="323.14725" fill="none" stroke-width="1.88975" stroke="black"></rect><rect width="34.0155" height="34.0155" x="1003.4572499999999" y="58.582250000000016" fill="none" stroke-width="1.88975" stroke="black"></rect><rect width="34.0155" height="34.0155" x="1003.4572499999999" y="96.37725000000002" fill="none" stroke-width="1.88975" stroke="black"></rect><rect width="34.0155" height="34.0155" x="1003.4572499999999" y="134.17225000000002" fill="none" stroke-width="1.88975" stroke="black"></rect><rect width="34.0155" height="34.0155" x="1003.4572499999999" y="171.96725" fill="none" stroke-width="1.88975" stroke="black"></rect><rect width="34.0155" height="34.0155" x="1003.4572499999999" y="209.76225000000002" fill="none" stroke-width="1.88975" stroke="black"></rect><rect width="34.0155" height="34.0155" x="1003.4572499999999" y="247.55725000000004" fill="none" stroke-width="1.88975" stroke="black"></rect><rect width="34.0155" height="34.0155" x="1003.4572499999999" y="285.35225" fill="none" stroke-width="1.88975" stroke="black"></rect><rect width="34.0155" height="34.0155" x="1003.4572499999999" y="323.14725" fill="none" stroke-width="1.88975" stroke="black"></rect><rect width="34.0155" height="34.0155" x="1041.25225" y="58.582250000000016" fill="none" stroke-width="1.88975" stroke="black"></rect><rect width="34.0155" height="34.0155" x="1041.25225" y="96.37725000000002" fill="none" stroke-width="1.88975" stroke="black"></rect><rect width="34.0155" height="34.0155" x="1041.25225" y="134.17225000000002" fill="none" stroke-width="1.88975" stroke="black"></rect><rect width="34.0155" height="34.0155" x="1041.25225" y="171.96725" fill="none" stroke-width="1.88975" stroke="black"></rect><rect width="34.0155" height="34.0155" x="1041.25225" y="209.76225000000002" fill="none" stroke-width="1.88975" stroke="black"></rect><rect width="34.0155" height="34.0155" x="1041.25225" y="247.55725000000004" fill="none" stroke-width="1.88975" stroke="black"></rect><rect width="34.0155" height="34.0155" x="1041.25225" y="285.35225" fill="none" stroke-width="1.88975" stroke="black"></rect><rect width="34.0155" height="34.0155" x="1041.25225" y="323.14725" fill="none" stroke-width="1.88975" stroke="black"></rect><rect width="34.0155" height="34.0155" x="1079.04725" y="58.582250000000016" fill="none" stroke-width="1.88975" stroke="black"></rect><rect width="34.0155" height="34.0155" x="1079.04725" y="96.37725000000002" fill="none" stroke-width="1.88975" stroke="black"></rect><rect width="34.0155" height="34.0155" x="1079.04725" y="134.17225000000002" fill="none" stroke-width="1.88975" stroke="black"></rect><rect width="34.0155" height="34.0155" x="1079.04725" y="171.96725" fill="none" stroke-width="1.88975" stroke="black"></rect><rect width="34.0155" height="34.0155" x="1079.04725" y="209.76225000000002" fill="none" stroke-width="1.88975" stroke="black"></rect><rect width="34.0155" height="34.0155" x="1079.04725" y="247.55725000000004" fill="none" stroke-width="1.88975" stroke="black"></rect><rect width="34.0155" height="34.0155" x="1079.04725" y="285.35225" fill="none" stroke-width="1.88975" stroke="black"></rect><rect width="34.0155" height="34.0155" x="1079.04725" y="323.14725" fill="none" stroke-width="1.88975" stroke="black"></rect><rect width="34.0155" height="34.0155" x="1116.84225" y="58.582250000000016" fill="none" stroke-width="1.88975" stroke="black"></rect><rect width="34.0155" height="34.0155" x="1116.84225" y="96.37725000000002" fill="none" stroke-width="1.88975" stroke="black"></rect><rect width="34.0155" height="34.0155" x="1116.84225" y="134.17225000000002" fill="none" stroke-width="1.88975" stroke="black"></rect><rect width="34.0155" height="34.0155" x="1116.84225" y="171.96725" fill="none" stroke-width="1.88975" stroke="black"></rect><rect width="34.0155" height="34.0155" x="1116.84225" y="209.76225000000002" fill="none" stroke-width="1.88975" stroke="black"></rect><rect width="34.0155" height="34.0155" x="1116.84225" y="247.55725000000004" fill="none" stroke-width="1.88975" stroke="black"></rect><rect width="34.0155" height="34.0155" x="1116.84225" y="285.35225" fill="none" stroke-width="1.88975" stroke="black"></rect><rect width="34.0155" height="34.0155" x="1116.84225" y="323.14725" fill="none" stroke-width="1.88975" stroke="black"></rect><rect width="34.0155" height="34.0155" x="1154.63725" y="58.582250000000016" fill="none" stroke-width="1.88975" stroke="black"></rect><rect width="34.0155" height="34.0155" x="1154.63725" y="96.37725000000002" fill="none" stroke-width="1.88975" stroke="black"></rect><rect width="34.0155" height="34.0155" x="1154.63725" y="134.17225000000002" fill="none" stroke-width="1.88975" stroke="black"></rect><rect width="34.0155" height="34.0155" x="1154.63725" y="171.96725" fill="none" stroke-width="1.88975" stroke="black"></rect><rect width="34.0155" height="34.0155" x="1154.63725" y="209.76225000000002" fill="none" stroke-width="1.88975" stroke="black"></rect><rect width="34.0155" height="34.0155" x="1154.63725" y="247.55725000000004" fill="none" stroke-width="1.88975" stroke="black"></rect><rect width="34.0155" height="34.0155" x="1154.63725" y="285.35225" fill="none" stroke-width="1.88975" stroke="black"></rect><rect width="34.0155" height="34.0155" x="1154.63725" y="323.14725" fill="none" stroke-width="1.88975" stroke="black"></rect><rect width="34.0155" height="34.0155" x="1192.43225" y="58.582250000000016" fill="none" stroke-width="1.88975" stroke="black"></rect><rect width="34.0155" height="34.0155" x="1192.43225" y="96.37725000000002" fill="none" stroke-width="1.88975" stroke="black"></rect><rect width="34.0155" height="34.0155" x="1192.43225" y="134.17225000000002" fill="none" stroke-width="1.88975" stroke="black"></rect><rect width="34.0155" height="34.0155" x="1192.43225" y="171.96725" fill="none" stroke-width="1.88975" stroke="black"></rect><rect width="34.0155" height="34.0155" x="1192.43225" y="209.76225000000002" fill="none" stroke-width="1.88975" stroke="black"></rect><rect width="34.0155" height="34.0155" x="1192.43225" y="247.55725000000004" fill="none" stroke-width="1.88975" stroke="black"></rect><rect width="34.0155" height="34.0155" x="1192.43225" y="285.35225" fill="none" stroke-width="1.88975" stroke="black"></rect><rect width="34.0155" height="34.0155" x="1192.43225" y="323.14725" fill="none" stroke-width="1.88975" stroke="black"></rect><rect width="34.0155" height="34.0155" x="1230.2272500000001" y="58.582250000000016" fill="none" stroke-width="1.88975" stroke="black"></rect><rect width="34.0155" height="34.0155" x="1230.2272500000001" y="96.37725000000002" fill="none" stroke-width="1.88975" stroke="black"></rect><rect width="34.0155" height="34.0155" x="1230.2272500000001" y="134.17225000000002" fill="none" stroke-width="1.88975" stroke="black"></rect><rect width="34.0155" height="34.0155" x="1230.2272500000001" y="171.96725" fill="none" stroke-width="1.88975" stroke="black"></rect><rect width="34.0155" height="34.0155" x="1230.2272500000001" y="209.76225000000002" fill="none" stroke-width="1.88975" stroke="black"></rect><rect width="34.0155" height="34.0155" x="1230.2272500000001" y="247.55725000000004" fill="none" stroke-width="1.88975" stroke="black"></rect><rect width="34.0155" height="34.0155" x="1230.2272500000001" y="285.35225" fill="none" stroke-width="1.88975" stroke="black"></rect><rect width="34.0155" height="34.0155" x="1230.2272500000001" y="323.14725" fill="none" stroke-width="1.88975" stroke="black"></rect></g></svg>