<svg xmlns="http://www.w3.org/2000/svg" version="1.1" xmlns:xlink="http://www.w3.org/1999/xlink" xmlns:svgjs="http://svgjs.com/svgjs" width="350" height="110"><rect width="350" height="110" rx="10" yx="10" fill="none" stroke-width="0.5" stroke="black"></rect><g><rect width="9" height="9" x="15.5" y="15.5" fill="none" stroke-width="0.5" stroke="black"></rect><rect width="9" height="9" x="15.5" y="25.5" fill="none" stroke-width="0.5" stroke="black"></rect><rect width="9" height="9" x="15.5" y="35.5" fill="none" stroke-width="0.5" stroke="black"></rect><rect width="9" height="9" x="15.5" y="45.5" fill="none" stroke-width="0.5" stroke="black"></rect><rect width="9" height="9" x="15.5" y="55.5" fill="none" stroke-width="0.5" stroke="black"></rect><rect width="9" height="9" x="15.5" y="65.5" fill="none" stroke-width="0.5" stroke="black"></rect><rect width="9" height="9" x="15.5" y="75.5" fill="none" stroke-width="0.5" stroke="black"></rect><rect width="9" height="9" x="15.5" y="85.5" fill="none" stroke-width="0.5" stroke="black"></rect><rect width="9" height="9" x="25.5" y="15.5" fill="none" stroke-width="0.5" stroke="black"></rect><rect width="9" height="9" x="25.5" y="25.5" fill="none" stroke-width="0.5" stroke="black"></rect><rect width="9" height="9" x="25.5" y="35.5" fill="none" stroke-width="0.5" stroke="black"></rect><rect width="9" height="9" x="25.5" y="45.5" fill="none" stroke-width="0.5" stroke="black"></rect><rect width="9" height="9" x="25.5" y="55.5" fill="none" stroke-width="0.5" stroke="black"></rect><rect width="9" height="9" x="25.5" y="65.5" fill="none" stroke-width="0.5" stroke="black"></rect><rect width="9" height="9" x="25.5" y="75.5" fill="none" stroke-width="0.5" stroke="black"></rect><rect width="9" height="9" x="25.5" y="85.5" fill="none" stroke-width="0.5" stroke="black"></rect><rect width="9" height="9" x="35.5" y="15.5" fill="none" stroke-width="0.5" stroke="black"></rect><rect width="9" height="9" x="35.5" y="25.5" fill="none" stroke-width="0.5" stroke="black"></rect><rect width="9" height="9" x="35.5" y="35.5" fill="none" stroke-width="0.5" stroke="black"></rect><rect width="9" height="9" x="35.5" y="45.5" fill="none" stroke-width="0.5" stroke="black"></rect><rect width="9" height="9" x="35.5" y="55.5" fill="none" stroke-width="0.5" stroke="black"></rect><rect width="9" height="9" x="35.5" y="65.5" fill="none" stroke-width="0.5" stroke="black"></rect><rect width="9" height="9" x="35.5" y="75.5" fill="none" stroke-width="0.5" stroke="black"></rect><rect width="9" height="9" x="35.5" y="85.5" fill="none" stroke-width="0.5" stroke="black"></rect><rect width="9" height="9" x="45.5" y="15.5" fill="none" stroke-width="0.5" stroke="black"></rect><rect width="9" height="9" x="45.5" y="25.5" fill="none" stroke-width="0.5" stroke="black"></rect><rect width="9" height="9" x="45.5" y="35.5" fill="none" stroke-width="0.5" stroke="black"></rect><rect width="9" height="9" x="45.5" y="45.5" fill="none" stroke-width="0.5" stroke="black"></rect><rect width="9" height="9" x="45.5" y="55.5" fill="none" stroke-width="0.5" stroke="black"></rect><rect width="9" height="9" x="45.5" y="65.5" fill="none" stroke-width="0.5" stroke="black"></rect><rect width="9" height="9" x="45.5" y="75.5" fill="none" stroke-width="0.5" stroke="black"></rect><rect width="9" height="9" x="45.5" y="85.5" fill="none" stroke-width="0.5" stroke="black"></rect><rect width="9" height="9" x="55.5" y="15.5" fill="none" stroke-width="0.5" stroke="black"></rect><rect width="9" height="9" x="55.5" y="25.5" fill="none" stroke-width="0.5" stroke="black"></rect><rect width="9" height="9" x="55.5" y="35.5" fill="none" stroke-width="0.5" stroke="black"></rect><rect width="9" height="9" x="55.5" y="45.5" fill="none" stroke-width="0.5" stroke="black"></rect><rect width="9" height="9" x="55.5" y="55.5" fill="none" stroke-width="0.5" stroke="black"></rect><rect width="9" height="9" x="55.5" y="65.5" fill="none" stroke-width="0.5" stroke="black"></rect><rect width="9" height="9" x="55.5" y="75.5" fill="none" stroke-width="0.5" stroke="black"></rect><rect width="9" height="9" x="55.5" y="85.5" fill="none" stroke-width="0.5" stroke="black"></rect><rect width="9" height="9" x="65.5" y="15.5" fill="none" stroke-width="0.5" stroke="black"></rect><rect width="9" height="9" x="65.5" y="25.5" fill="none" stroke-width="0.5" stroke="black"></rect><rect width="9" height="9" x="65.5" y="35.5" fill="none" stroke-width="0.5" stroke="black"></rect><rect width="9" height="9" x="65.5" y="45.5" fill="none" stroke-width="0.5" stroke="black"></rect><rect width="9" height="9" x="65.5" y="55.5" fill="none" stroke-width="0.5" stroke="black"></rect><rect width="9" height="9" x="65.5" y="65.5" fill="none" stroke-width="0.5" stroke="black"></rect><rect width="9" height="9" x="65.5" y="75.5" fill="none" stroke-width="0.5" stroke="black"></rect><rect width="9" height="9" x="65.5" y="85.5" fill="none" stroke-width="0.5" stroke="black"></rect><rect width="9" height="9" x="75.5" y="15.5" fill="none" stroke-width="0.5" stroke="black"></rect><rect width="9" height="9" x="75.5" y="25.5" fill="none" stroke-width="0.5" stroke="black"></rect><rect width="9" height="9" x="75.5" y="35.5" fill="none" stroke-width="0.5" stroke="black"></rect><rect width="9" height="9" x="75.5" y="45.5" fill="none" stroke-width="0.5" stroke="black"></rect><rect width="9" height="9" x="75.5" y="55.5" fill="none" stroke-width="0.5" stroke="black"></rect><rect width="9" height="9" x="75.5" y="65.5" fill="none" stroke-width="0.5" stroke="black"></rect><rect width="9" height="9" x="75.5" y="75.5" fill="none" stroke-width="0.5" stroke="black"></rect><rect width="9" height="9" x="75.5" y="85.5" fill="none" stroke-width="0.5" stroke="black"></rect><rect width="9" height="9" x="85.5" y="15.5" fill="none" stroke-width="0.5" stroke="black"></rect><rect width="9" height="9" x="85.5" y="25.5" fill="none" stroke-width="0.5" stroke="black"></rect><rect width="9" height="9" x="85.5" y="35.5" fill="none" stroke-width="0.5" stroke="black"></rect><rect width="9" height="9" x="85.5" y="45.5" fill="none" stroke-width="0.5" stroke="black"></rect><rect width="9" height="9" x="85.5" y="55.5" fill="none" stroke-width="0.5" stroke="black"></rect><rect width="9" height="9" x="85.5" y="65.5" fill="none" stroke-width="0.5" stroke="black"></rect><rect width="9" height="9" x="85.5" y="75.5" fill="none" stroke-width="0.5" stroke="black"></rect><rect width="9" height="9" x="85.5" y="85.5" fill="none" stroke-width="0.5" stroke="black"></rect><rect width="9" height="9" x="95.5" y="15.5" fill="none" stroke-width="0.5" stroke="black"></rect><rect width="9" height="9" x="95.5" y="25.5" fill="none" stroke-width="0.5" stroke="black"></rect><rect width="9" height="9" x="95.5" y="35.5" fill="none" stroke-width="0.5" stroke="black"></rect><rect width="9" height="9" x="95.5" y="45.5" fill="none" stroke-width="0.5" stroke="black"></rect><rect width="9" height="9" x="95.5" y="55.5" fill="none" stroke-width="0.5" stroke="black"></rect><rect width="9" height="9" x="95.5" y="65.5" fill="none" stroke-width="0.5" stroke="black"></rect><rect width="9" height="9" x="95.5" y="75.5" fill="none" stroke-width="0.5" stroke="black"></rect><rect width="9" height="9" x="95.5" y="85.5" fill="none" stroke-width="0.5" stroke="black"></rect><rect width="9" height="9" x="105.5" y="15.5" fill="none" stroke-width="0.5" stroke="black"></rect><rect width="9" height="9" x="105.5" y="25.5" fill="none" stroke-width="0.5" stroke="black"></rect><rect width="9" height="9" x="105.5" y="35.5" fill="none" stroke-width="0.5" stroke="black"></rect><rect width="9" height="9" x="105.5" y="45.5" fill="none" stroke-width="0.5" stroke="black"></rect><rect width="9" height="9" x="105.5" y="55.5" fill="none" stroke-width="0.5" stroke="black"></rect><rect width="9" height="9" x="105.5" y="65.5" fill="none" stroke-width="0.5" stroke="black"></rect><rect width="9" height="9" x="105.5" y="75.5" fill="none" stroke-width="0.5" stroke="black"></rect><rect width="9" height="9" x="105.5" y="85.5" fill="none" stroke-width="0.5" stroke="black"></rect><rect width="9" height="9" x="115.5" y="15.5" fill="none" stroke-width="0.5" stroke="black"></rect><rect width="9" height="9" x="115.5" y="25.5" fill="none" stroke-width="0.5" stroke="black"></rect><rect width="9" height="9" x="115.5" y="35.5" fill="none" stroke-width="0.5" stroke="black"></rect><rect width="9" height="9" x="115.5" y="45.5" fill="none" stroke-width="0.5" stroke="black"></rect><rect width="9" height="9" x="115.5" y="55.5" fill="none" stroke-width="0.5" stroke="black"></rect><rect width="9" height="9" x="115.5" y="65.5" fill="none" stroke-width="0.5" stroke="black"></rect><rect width="9" height="9" x="115.5" y="75.5" fill="none" stroke-width="0.5" stroke="black"></rect><rect width="9" height="9" x="115.5" y="85.5" fill="none" stroke-width="0.5" stroke="black"></rect><rect width="9" height="9" x="125.5" y="15.5" fill="none" stroke-width="0.5" stroke="black"></rect><rect width="9" height="9" x="125.5" y="25.5" fill="none" stroke-width="0.5" stroke="black"></rect><rect width="9" height="9" x="125.5" y="35.5" fill="none" stroke-width="0.5" stroke="black"></rect><rect width="9" height="9" x="125.5" y="45.5" fill="none" stroke-width="0.5" stroke="black"></rect><rect width="9" height="9" x="125.5" y="55.5" fill="none" stroke-width="0.5" stroke="black"></rect><rect width="9" height="9" x="125.5" y="65.5" fill="none" stroke-width="0.5" stroke="black"></rect><rect width="9" height="9" x="125.5" y="75.5" fill="none" stroke-width="0.5" stroke="black"></rect><rect width="9" height="9" x="125.5" y="85.5" fill="none" stroke-width="0.5" stroke="black"></rect><rect width="9" height="9" x="135.5" y="15.5" fill="none" stroke-width="0.5" stroke="black"></rect><rect width="9" height="9" x="135.5" y="25.5" fill="none" stroke-width="0.5" stroke="black"></rect><rect width="9" height="9" x="135.5" y="35.5" fill="none" stroke-width="0.5" stroke="black"></rect><rect width="9" height="9" x="135.5" y="45.5" fill="none" stroke-width="0.5" stroke="black"></rect><rect width="9" height="9" x="135.5" y="55.5" fill="none" stroke-width="0.5" stroke="black"></rect><rect width="9" height="9" x="135.5" y="65.5" fill="none" stroke-width="0.5" stroke="black"></rect><rect width="9" height="9" x="135.5" y="75.5" fill="none" stroke-width="0.5" stroke="black"></rect><rect width="9" height="9" x="135.5" y="85.5" fill="none" stroke-width="0.5" stroke="black"></rect><rect width="9" height="9" x="145.5" y="15.5" fill="none" stroke-width="0.5" stroke="black"></rect><rect width="9" height="9" x="145.5" y="25.5" fill="none" stroke-width="0.5" stroke="black"></rect><rect width="9" height="9" x="145.5" y="35.5" fill="none" stroke-width="0.5" stroke="black"></rect><rect width="9" height="9" x="145.5" y="45.5" fill="none" stroke-width="0.5" stroke="black"></rect><rect width="9" height="9" x="145.5" y="55.5" fill="none" stroke-width="0.5" stroke="black"></rect><rect width="9" height="9" x="145.5" y="65.5" fill="none" stroke-width="0.5" stroke="black"></rect><rect width="9" height="9" x="145.5" y="75.5" fill="none" stroke-width="0.5" stroke="black"></rect><rect width="9" height="9" x="145.5" y="85.5" fill="none" stroke-width="0.5" stroke="black"></rect><rect width="9" height="9" x="155.5" y="15.5" fill="none" stroke-width="0.5" stroke="black"></rect><rect width="9" height="9" x="155.5" y="25.5" fill="none" stroke-width="0.5" stroke="black"></rect><rect width="9" height="9" x="155.5" y="35.5" fill="none" stroke-width="0.5" stroke="black"></rect><rect width="9" height="9" x="155.5" y="45.5" fill="none" stroke-width="0.5" stroke="black"></rect><rect width="9" height="9" x="155.5" y="55.5" fill="none" stroke-width="0.5" stroke="black"></rect><rect width="9" height="9" x="155.5" y="65.5" fill="none" stroke-width="0.5" stroke="black"></rect><rect width="9" height="9" x="155.5" y="75.5" fill="none" stroke-width="0.5" stroke="black"></rect><rect width="9" height="9" x="155.5" y="85.5" fill="none" stroke-width="0.5" stroke="black"></rect><rect width="9" height="9" x="165.5" y="15.5" fill="none" stroke-width="0.5" stroke="black"></rect><rect width="9" height="9" x="165.5" y="25.5" fill="none" stroke-width="0.5" stroke="black"></rect><rect width="9" height="9" x="165.5" y="35.5" fill="none" stroke-width="0.5" stroke="black"></rect><rect width="9" height="9" x="165.5" y="45.5" fill="none" stroke-width="0.5" stroke="black"></rect><rect width="9" height="9" x="165.5" y="55.5" fill="none" stroke-width="0.5" stroke="black"></rect><rect width="9" height="9" x="165.5" y="65.5" fill="none" stroke-width="0.5" stroke="black"></rect><rect width="9" height="9" x="165.5" y="75.5" fill="none" stroke-width="0.5" stroke="black"></rect><rect width="9" height="9" x="165.5" y="85.5" fill="none" stroke-width="0.5" stroke="black"></rect><rect width="9" height="9" x="175.5" y="15.5" fill="none" stroke-width="0.5" stroke="black"></rect><rect width="9" height="9" x="175.5" y="25.5" fill="none" stroke-width="0.5" stroke="black"></rect><rect width="9" height="9" x="175.5" y="35.5" fill="none" stroke-width="0.5" stroke="black"></rect><rect width="9" height="9" x="175.5" y="45.5" fill="none" stroke-width="0.5" stroke="black"></rect><rect width="9" height="9" x="175.5" y="55.5" fill="none" stroke-width="0.5" stroke="black"></rect><rect width="9" height="9" x="175.5" y="65.5" fill="none" stroke-width="0.5" stroke="black"></rect><rect width="9" height="9" x="175.5" y="75.5" fill="none" stroke-width="0.5" stroke="black"></rect><rect width="9" height="9" x="175.5" y="85.5" fill="none" stroke-width="0.5" stroke="black"></rect><rect width="9" height="9" x="185.5" y="15.5" fill="none" stroke-width="0.5" stroke="black"></rect><rect width="9" height="9" x="185.5" y="25.5" fill="none" stroke-width="0.5" stroke="black"></rect><rect width="9" height="9" x="185.5" y="35.5" fill="none" stroke-width="0.5" stroke="black"></rect><rect width="9" height="9" x="185.5" y="45.5" fill="none" stroke-width="0.5" stroke="black"></rect><rect width="9" height="9" x="185.5" y="55.5" fill="none" stroke-width="0.5" stroke="black"></rect><rect width="9" height="9" x="185.5" y="65.5" fill="none" stroke-width="0.5" stroke="black"></rect><rect width="9" height="9" x="185.5" y="75.5" fill="none" stroke-width="0.5" stroke="black"></rect><rect width="9" height="9" x="185.5" y="85.5" fill="none" stroke-width="0.5" stroke="black"></rect><rect width="9" height="9" x="195.5" y="15.5" fill="none" stroke-width="0.5" stroke="black"></rect><rect width="9" height="9" x="195.5" y="25.5" fill="none" stroke-width="0.5" stroke="black"></rect><rect width="9" height="9" x="195.5" y="35.5" fill="none" stroke-width="0.5" stroke="black"></rect><rect width="9" height="9" x="195.5" y="45.5" fill="none" stroke-width="0.5" stroke="black"></rect><rect width="9" height="9" x="195.5" y="55.5" fill="none" stroke-width="0.5" stroke="black"></rect><rect width="9" height="9" x="195.5" y="65.5" fill="none" stroke-width="0.5" stroke="black"></rect><rect width="9" height="9" x="195.5" y="75.5" fill="none" stroke-width="0.5" stroke="black"></rect><rect width="9" height="9" x="195.5" y="85.5" fill="none" stroke-width="0.5" stroke="black"></rect><rect width="9" height="9" x="205.5" y="15.5" fill="none" stroke-width="0.5" stroke="black"></rect><rect width="9" height="9" x="205.5" y="25.5" fill="none" stroke-width="0.5" stroke="black"></rect><rect width="9" height="9" x="205.5" y="35.5" fill="none" stroke-width="0.5" stroke="black"></rect><rect width="9" height="9" x="205.5" y="45.5" fill="none" stroke-width="0.5" stroke="black"></rect><rect width="9" height="9" x="205.5" y="55.5" fill="none" stroke-width="0.5" stroke="black"></rect><rect width="9" height="9" x="205.5" y="65.5" fill="none" stroke-width="0.5" stroke="black"></rect><rect width="9" height="9" x="205.5" y="75.5" fill="none" stroke-width="0.5" stroke="black"></rect><rect width="9" height="9" x="205.5" y="85.5" fill="none" stroke-width="0.5" stroke="black"></rect><rect width="9" height="9" x="215.5" y="15.5" fill="none" stroke-width="0.5" stroke="black"></rect><rect width="9" height="9" x="215.5" y="25.5" fill="none" stroke-width="0.5" stroke="black"></rect><rect width="9" height="9" x="215.5" y="35.5" fill="none" stroke-width="0.5" stroke="black"></rect><rect width="9" height="9" x="215.5" y="45.5" fill="none" stroke-width="0.5" stroke="black"></rect><rect width="9" height="9" x="215.5" y="55.5" fill="none" stroke-width="0.5" stroke="black"></rect><rect width="9" height="9" x="215.5" y="65.5" fill="none" stroke-width="0.5" stroke="black"></rect><rect width="9" height="9" x="215.5" y="75.5" fill="none" stroke-width="0.5" stroke="black"></rect><rect width="9" height="9" x="215.5" y="85.5" fill="none" stroke-width="0.5" stroke="black"></rect><rect width="9" height="9" x="225.5" y="15.5" fill="none" stroke-width="0.5" stroke="black"></rect><rect width="9" height="9" x="225.5" y="25.5" fill="none" stroke-width="0.5" stroke="black"></rect><rect width="9" height="9" x="225.5" y="35.5" fill="none" stroke-width="0.5" stroke="black"></rect><rect width="9" height="9" x="225.5" y="45.5" fill="none" stroke-width="0.5" stroke="black"></rect><rect width="9" height="9" x="225.5" y="55.5" fill="none" stroke-width="0.5" stroke="black"></rect><rect width="9" height="9" x="225.5" y="65.5" fill="none" stroke-width="0.5" stroke="black"></rect><rect width="9" height="9" x="225.5" y="75.5" fill="none" stroke-width="0.5" stroke="black"></rect><rect width="9" height="9" x="225.5" y="85.5" fill="none" stroke-width="0.5" stroke="black"></rect><rect width="9" height="9" x="235.5" y="15.5" fill="none" stroke-width="0.5" stroke="black"></rect><rect width="9" height="9" x="235.5" y="25.5" fill="none" stroke-width="0.5" stroke="black"></rect><rect width="9" height="9" x="235.5" y="35.5" fill="none" stroke-width="0.5" stroke="black"></rect><rect width="9" height="9" x="235.5" y="45.5" fill="none" stroke-width="0.5" stroke="black"></rect><rect width="9" height="9" x="235.5" y="55.5" fill="none" stroke-width="0.5" stroke="black"></rect><rect width="9" height="9" x="235.5" y="65.5" fill="none" stroke-width="0.5" stroke="black"></rect><rect width="9" height="9" x="235.5" y="75.5" fill="none" stroke-width="0.5" stroke="black"></rect><rect width="9" height="9" x="235.5" y="85.5" fill="none" stroke-width="0.5" stroke="black"></rect><rect width="9" height="9" x="245.5" y="15.5" fill="none" stroke-width="0.5" stroke="black"></rect><rect width="9" height="9" x="245.5" y="25.5" fill="none" stroke-width="0.5" stroke="black"></rect><rect width="9" height="9" x="245.5" y="35.5" fill="none" stroke-width="0.5" stroke="black"></rect><rect width="9" height="9" x="245.5" y="45.5" fill="none" stroke-width="0.5" stroke="black"></rect><rect width="9" height="9" x="245.5" y="55.5" fill="none" stroke-width="0.5" stroke="black"></rect><rect width="9" height="9" x="245.5" y="65.5" fill="none" stroke-width="0.5" stroke="black"></rect><rect width="9" height="9" x="245.5" y="75.5" fill="none" stroke-width="0.5" stroke="black"></rect><rect width="9" height="9" x="245.5" y="85.5" fill="none" stroke-width="0.5" stroke="black"></rect><rect width="9" height="9" x="255.5" y="15.5" fill="none" stroke-width="0.5" stroke="black"></rect><rect width="9" height="9" x="255.5" y="25.5" fill="none" stroke-width="0.5" stroke="black"></rect><rect width="9" height="9" x="255.5" y="35.5" fill="none" stroke-width="0.5" stroke="black"></rect><rect width="9" height="9" x="255.5" y="45.5" fill="none" stroke-width="0.5" stroke="black"></rect><rect width="9" height="9" x="255.5" y="55.5" fill="none" stroke-width="0.5" stroke="black"></rect><rect width="9" height="9" x="255.5" y="65.5" fill="none" stroke-width="0.5" stroke="black"></rect><rect width="9" height="9" x="255.5" y="75.5" fill="none" stroke-width="0.5" stroke="black"></rect><rect width="9" height="9" x="255.5" y="85.5" fill="none" stroke-width="0.5" stroke="black"></rect><rect width="9" height="9" x="265.5" y="15.5" fill="none" stroke-width="0.5" stroke="black"></rect><rect width="9" height="9" x="265.5" y="25.5" fill="none" stroke-width="0.5" stroke="black"></rect><rect width="9" height="9" x="265.5" y="35.5" fill="none" stroke-width="0.5" stroke="black"></rect><rect width="9" height="9" x="265.5" y="45.5" fill="none" stroke-width="0.5" stroke="black"></rect><rect width="9" height="9" x="265.5" y="55.5" fill="none" stroke-width="0.5" stroke="black"></rect><rect width="9" height="9" x="265.5" y="65.5" fill="none" stroke-width="0.5" stroke="black"></rect><rect width="9" height="9" x="265.5" y="75.5" fill="none" stroke-width="0.5" stroke="black"></rect><rect width="9" height="9" x="265.5" y="85.5" fill="none" stroke-width="0.5" stroke="black"></rect><rect width="9" height="9" x="275.5" y="15.5" fill="none" stroke-width="0.5" stroke="black"></rect><rect width="9" height="9" x="275.5" y="25.5" fill="none" stroke-width="0.5" stroke="black"></rect><rect width="9" height="9" x="275.5" y="35.5" fill="none" stroke-width="0.5" stroke="black"></rect><rect width="9" height="9" x="275.5" y="45.5" fill="none" stroke-width="0.5" stroke="black"></rect><rect width="9" height="9" x="275.5" y="55.5" fill="none" stroke-width="0.5" stroke="black"></rect><rect width="9" height="9" x="275.5" y="65.5" fill="none" stroke-width="0.5" stroke="black"></rect><rect width="9" height="9" x="275.5" y="75.5" fill="none" stroke-width="0.5" stroke="black"></rect><rect width="9" height="9" x="275.5" y="85.5" fill="none" stroke-width="0.5" stroke="black"></rect><rect width="9" height="9" x="285.5" y="15.5" fill="none" stroke-width="0.5" stroke="black"></rect><rect width="9" height="9" x="285.5" y="25.5" fill="none" stroke-width="0.5" stroke="black"></rect><rect width="9" height="9" x="285.5" y="35.5" fill="none" stroke-width="0.5" stroke="black"></rect><rect width="9" height="9" x="285.5" y="45.5" fill="none" stroke-width="0.5" stroke="black"></rect><rect width="9" height="9" x="285.5" y="55.5" fill="none" stroke-width="0.5" stroke="black"></rect><rect width="9" height="9" x="285.5" y="65.5" fill="none" stroke-width="0.5" stroke="black"></rect><rect width="9" height="9" x="285.5" y="75.5" fill="none" stroke-width="0.5" stroke="black"></rect><rect width="9" height="9" x="285.5" y="85.5" fill="none" stroke-width="0.5" stroke="black"></rect><rect width="9" height="9" x="295.5" y="15.5" fill="none" stroke-width="0.5" stroke="black"></rect><rect width="9" height="9" x="295.5" y="25.5" fill="none" stroke-width="0.5" stroke="black"></rect><rect width="9" height="9" x="295.5" y="35.5" fill="none" stroke-width="0.5" stroke="black"></rect><rect width="9" height="9" x="295.5" y="45.5" fill="none" stroke-width="0.5" stroke="black"></rect><rect width="9" height="9" x="295.5" y="55.5" fill="none" stroke-width="0.5" stroke="black"></rect><rect width="9" height="9" x="295.5" y="65.5" fill="none" stroke-width="0.5" stroke="black"></rect><rect width="9" height="9" x="295.5" y="75.5" fill="none" stroke-width="0.5" stroke="black"></rect><rect width="9" height="9" x="295.5" y="85.5" fill="none" stroke-width="0.5" stroke="black"></rect><rect width="9" height="9" x="305.5" y="15.5" fill="none" stroke-width="0.5" stroke="black"></rect><rect width="9" height="9" x="305.5" y="25.5" fill="none" stroke-width="0.5" stroke="black"></rect><rect width="9" height="9" x="305.5" y="35.5" fill="none" stroke-width="0.5" stroke="black"></rect><rect width="9" height="9" x="305.5" y="45.5" fill="none" stroke-width="0.5" stroke="black"></rect><rect width="9" height="9" x="305.5" y="55.5" fill="none" stroke-width="0.5" stroke="black"></rect><rect width="9" height="9" x="305.5" y="65.5" fill="none" stroke-width="0.5" stroke="black"></rect><rect width="9" height="9" x="305.5" y="75.5" fill="none" stroke-width="0.5" stroke="black"></rect><rect width="9" height="9" x="305.5" y="85.5" fill="none" stroke-width="0.5" stroke="black"></rect><rect width="9" height="9" x="315.5" y="15.5" fill="none" stroke-width="0.5" stroke="black"></rect><rect width="9" height="9" x="315.5" y="25.5" fill="none" stroke-width="0.5" stroke="black"></rect><rect width="9" height="9" x="315.5" y="35.5" fill="none" stroke-width="0.5" stroke="black"></rect><rect width="9" height="9" x="315.5" y="45.5" fill="none" stroke-width="0.5" stroke="black"></rect><rect width="9" height="9" x="315.5" y="55.5" fill="none" stroke-width="0.5" stroke="black"></rect><rect width="9" height="9" x="315.5" y="65.5" fill="none" stroke-width="0.5" stroke="black"></rect><rect width="9" height="9" x="315.5" y="75.5" fill="none" stroke-width="0.5" stroke="black"></rect><rect width="9" height="9" x="315.5" y="85.5" fill="none" stroke-width="0.5" stroke="black"></rect><rect width="9" height="9" x="325.5" y="15.5" fill="none" stroke-width="0.5" stroke="black"></rect><rect width="9" height="9" x="325.5" y="25.5" fill="none" stroke-width="0.5" stroke="black"></rect><rect width="9" height="9" x="325.5" y="35.5" fill="none" stroke-width="0.5" stroke="black"></rect><rect width="9" height="9" x="325.5" y="45.5" fill="none" stroke-width="0.5" stroke="black"></rect><rect width="9" height="9" x="325.5" y="55.5" fill="none" stroke-width="0.5" stroke="black"></rect><rect width="9" height="9" x="325.5" y="65.5" fill="none" stroke-width="0.5" stroke="black"></rect><rect width="9" height="9" x="325.5" y="75.5" fill="none" stroke-width="0.5" stroke="black"></rect><rect width="9" height="9" x="325.5" y="85.5" fill="none" stroke-width="0.5" stroke="black"></rect></g></svg>