<svg xmlns="http://www.w3.org/2000/svg" version="1.1" xmlns:xlink="http://www.w3.org/1999/xlink" xmlns:svgjs="http://svgjs.com/svgjs" width="350" height="110"><rect width="350" height="110" rx="10" yx="10" fill="none" stroke-width="0.5" stroke="black"></rect><g><rect width="9.5" height="9.5" x="15.25" y="15.25" fill="none" stroke-width="0.5" stroke="black"></rect><rect width="9.5" height="9.5" x="15.25" y="25.25" fill="none" stroke-width="0.5" stroke="black"></rect><rect width="9.5" height="9.5" x="15.25" y="35.25" fill="none" stroke-width="0.5" stroke="black"></rect><rect width="9.5" height="9.5" x="15.25" y="45.25" fill="none" stroke-width="0.5" stroke="black"></rect><rect width="9.5" height="9.5" x="15.25" y="55.25" fill="none" stroke-width="0.5" stroke="black"></rect><rect width="9.5" height="9.5" x="15.25" y="65.25" fill="none" stroke-width="0.5" stroke="black"></rect><rect width="9.5" height="9.5" x="15.25" y="75.25" fill="none" stroke-width="0.5" stroke="black"></rect><rect width="9.5" height="9.5" x="15.25" y="85.25" fill="none" stroke-width="0.5" stroke="black"></rect><rect width="9.5" height="9.5" x="25.25" y="15.25" fill="none" stroke-width="0.5" stroke="black"></rect><rect width="9.5" height="9.5" x="25.25" y="25.25" fill="none" stroke-width="0.5" stroke="black"></rect><rect width="9.5" height="9.5" x="25.25" y="35.25" fill="none" stroke-width="0.5" stroke="black"></rect><rect width="9.5" height="9.5" x="25.25" y="45.25" fill="none" stroke-width="0.5" stroke="black"></rect><rect width="9.5" height="9.5" x="25.25" y="55.25" fill="none" stroke-width="0.5" stroke="black"></rect><rect width="9.5" height="9.5" x="25.25" y="65.25" fill="none" stroke-width="0.5" stroke="black"></rect><rect width="9.5" height="9.5" x="25.25" y="75.25" fill="none" stroke-width="0.5" stroke="black"></rect><rect width="9.5" height="9.5" x="25.25" y="85.25" fill="none" stroke-width="0.5" stroke="black"></rect><rect width="9.5" height="9.5" x="35.25" y="15.25" fill="none" stroke-width="0.5" stroke="black"></rect><rect width="9.5" height="9.5" x="35.25" y="25.25" fill="none" stroke-width="0.5" stroke="black"></rect><rect width="9.5" height="9.5" x="35.25" y="35.25" fill="none" stroke-width="0.5" stroke="black"></rect><rect width="9.5" height="9.5" x="35.25" y="45.25" fill="none" stroke-width="0.5" stroke="black"></rect><rect width="9.5" height="9.5" x="35.25" y="55.25" fill="none" stroke-width="0.5" stroke="black"></rect><rect width="9.5" height="9.5" x="35.25" y="65.25" fill="none" stroke-width="0.5" stroke="black"></rect><rect width="9.5" height="9.5" x="35.25" y="75.25" fill="none" stroke-width="0.5" stroke="black"></rect><rect width="9.5" height="9.5" x="35.25" y="85.25" fill="none" stroke-width="0.5" stroke="black"></rect><rect width="9.5" height="9.5" x="45.25" y="15.25" fill="none" stroke-width="0.5" stroke="black"></rect><rect width="9.5" height="9.5" x="45.25" y="25.25" fill="none" stroke-width="0.5" stroke="black"></rect><rect width="9.5" height="9.5" x="45.25" y="35.25" fill="none" stroke-width="0.5" stroke="black"></rect><rect width="9.5" height="9.5" x="45.25" y="45.25" fill="none" stroke-width="0.5" stroke="black"></rect><rect width="9.5" height="9.5" x="45.25" y="55.25" fill="none" stroke-width="0.5" stroke="black"></rect><rect width="9.5" height="9.5" x="45.25" y="65.25" fill="none" stroke-width="0.5" stroke="black"></rect><rect width="9.5" height="9.5" x="45.25" y="75.25" fill="none" stroke-width="0.5" stroke="black"></rect><rect width="9.5" height="9.5" x="45.25" y="85.25" fill="none" stroke-width="0.5" stroke="black"></rect><rect width="9.5" height="9.5" x="55.25" y="15.25" fill="none" stroke-width="0.5" stroke="black"></rect><rect width="9.5" height="9.5" x="55.25" y="25.25" fill="none" stroke-width="0.5" stroke="black"></rect><rect width="9.5" height="9.5" x="55.25" y="35.25" fill="none" stroke-width="0.5" stroke="black"></rect><rect width="9.5" height="9.5" x="55.25" y="45.25" fill="none" stroke-width="0.5" stroke="black"></rect><rect width="9.5" height="9.5" x="55.25" y="55.25" fill="none" stroke-width="0.5" stroke="black"></rect><rect width="9.5" height="9.5" x="55.25" y="65.25" fill="none" stroke-width="0.5" stroke="black"></rect><rect width="9.5" height="9.5" x="55.25" y="75.25" fill="none" stroke-width="0.5" stroke="black"></rect><rect width="9.5" height="9.5" x="55.25" y="85.25" fill="none" stroke-width="0.5" stroke="black"></rect><rect width="9.5" height="9.5" x="65.25" y="15.25" fill="none" stroke-width="0.5" stroke="black"></rect><rect width="9.5" height="9.5" x="65.25" y="25.25" fill="none" stroke-width="0.5" stroke="black"></rect><rect width="9.5" height="9.5" x="65.25" y="35.25" fill="none" stroke-width="0.5" stroke="black"></rect><rect width="9.5" height="9.5" x="65.25" y="45.25" fill="none" stroke-width="0.5" stroke="black"></rect><rect width="9.5" height="9.5" x="65.25" y="55.25" fill="none" stroke-width="0.5" stroke="black"></rect><rect width="9.5" height="9.5" x="65.25" y="65.25" fill="none" stroke-width="0.5" stroke="black"></rect><rect width="9.5" height="9.5" x="65.25" y="75.25" fill="none" stroke-width="0.5" stroke="black"></rect><rect width="9.5" height="9.5" x="65.25" y="85.25" fill="none" stroke-width="0.5" stroke="black"></rect><rect width="9.5" height="9.5" x="75.25" y="15.25" fill="none" stroke-width="0.5" stroke="black"></rect><rect width="9.5" height="9.5" x="75.25" y="25.25" fill="none" stroke-width="0.5" stroke="black"></rect><rect width="9.5" height="9.5" x="75.25" y="35.25" fill="none" stroke-width="0.5" stroke="black"></rect><rect width="9.5" height="9.5" x="75.25" y="45.25" fill="none" stroke-width="0.5" stroke="black"></rect><rect width="9.5" height="9.5" x="75.25" y="55.25" fill="none" stroke-width="0.5" stroke="black"></rect><rect width="9.5" height="9.5" x="75.25" y="65.25" fill="none" stroke-width="0.5" stroke="black"></rect><rect width="9.5" height="9.5" x="75.25" y="75.25" fill="none" stroke-width="0.5" stroke="black"></rect><rect width="9.5" height="9.5" x="75.25" y="85.25" fill="none" stroke-width="0.5" stroke="black"></rect><rect width="9.5" height="9.5" x="85.25" y="15.25" fill="none" stroke-width="0.5" stroke="black"></rect><rect width="9.5" height="9.5" x="85.25" y="25.25" fill="none" stroke-width="0.5" stroke="black"></rect><rect width="9.5" height="9.5" x="85.25" y="35.25" fill="none" stroke-width="0.5" stroke="black"></rect><rect width="9.5" height="9.5" x="85.25" y="45.25" fill="none" stroke-width="0.5" stroke="black"></rect><rect width="9.5" height="9.5" x="85.25" y="55.25" fill="none" stroke-width="0.5" stroke="black"></rect><rect width="9.5" height="9.5" x="85.25" y="65.25" fill="none" stroke-width="0.5" stroke="black"></rect><rect width="9.5" height="9.5" x="85.25" y="75.25" fill="none" stroke-width="0.5" stroke="black"></rect><rect width="9.5" height="9.5" x="85.25" y="85.25" fill="none" stroke-width="0.5" stroke="black"></rect><rect width="9.5" height="9.5" x="95.25" y="15.25" fill="none" stroke-width="0.5" stroke="black"></rect><rect width="9.5" height="9.5" x="95.25" y="25.25" fill="none" stroke-width="0.5" stroke="black"></rect><rect width="9.5" height="9.5" x="95.25" y="35.25" fill="none" stroke-width="0.5" stroke="black"></rect><rect width="9.5" height="9.5" x="95.25" y="45.25" fill="none" stroke-width="0.5" stroke="black"></rect><rect width="9.5" height="9.5" x="95.25" y="55.25" fill="none" stroke-width="0.5" stroke="black"></rect><rect width="9.5" height="9.5" x="95.25" y="65.25" fill="none" stroke-width="0.5" stroke="black"></rect><rect width="9.5" height="9.5" x="95.25" y="75.25" fill="none" stroke-width="0.5" stroke="black"></rect><rect width="9.5" height="9.5" x="95.25" y="85.25" fill="none" stroke-width="0.5" stroke="black"></rect><rect width="9.5" height="9.5" x="105.25" y="15.25" fill="none" stroke-width="0.5" stroke="black"></rect><rect width="9.5" height="9.5" x="105.25" y="25.25" fill="none" stroke-width="0.5" stroke="black"></rect><rect width="9.5" height="9.5" x="105.25" y="35.25" fill="none" stroke-width="0.5" stroke="black"></rect><rect width="9.5" height="9.5" x="105.25" y="45.25" fill="none" stroke-width="0.5" stroke="black"></rect><rect width="9.5" height="9.5" x="105.25" y="55.25" fill="none" stroke-width="0.5" stroke="black"></rect><rect width="9.5" height="9.5" x="105.25" y="65.25" fill="none" stroke-width="0.5" stroke="black"></rect><rect width="9.5" height="9.5" x="105.25" y="75.25" fill="none" stroke-width="0.5" stroke="black"></rect><rect width="9.5" height="9.5" x="105.25" y="85.25" fill="none" stroke-width="0.5" stroke="black"></rect><rect width="9.5" height="9.5" x="115.25" y="15.25" fill="none" stroke-width="0.5" stroke="black"></rect><rect width="9.5" height="9.5" x="115.25" y="25.25" fill="none" stroke-width="0.5" stroke="black"></rect><rect width="9.5" height="9.5" x="115.25" y="35.25" fill="none" stroke-width="0.5" stroke="black"></rect><rect width="9.5" height="9.5" x="115.25" y="45.25" fill="none" stroke-width="0.5" stroke="black"></rect><rect width="9.5" height="9.5" x="115.25" y="55.25" fill="none" stroke-width="0.5" stroke="black"></rect><rect width="9.5" height="9.5" x="115.25" y="65.25" fill="none" stroke-width="0.5" stroke="black"></rect><rect width="9.5" height="9.5" x="115.25" y="75.25" fill="none" stroke-width="0.5" stroke="black"></rect><rect width="9.5" height="9.5" x="115.25" y="85.25" fill="none" stroke-width="0.5" stroke="black"></rect><rect width="9.5" height="9.5" x="125.25" y="15.25" fill="none" stroke-width="0.5" stroke="black"></rect><rect width="9.5" height="9.5" x="125.25" y="25.25" fill="none" stroke-width="0.5" stroke="black"></rect><rect width="9.5" height="9.5" x="125.25" y="35.25" fill="none" stroke-width="0.5" stroke="black"></rect><rect width="9.5" height="9.5" x="125.25" y="45.25" fill="none" stroke-width="0.5" stroke="black"></rect><rect width="9.5" height="9.5" x="125.25" y="55.25" fill="none" stroke-width="0.5" stroke="black"></rect><rect width="9.5" height="9.5" x="125.25" y="65.25" fill="none" stroke-width="0.5" stroke="black"></rect><rect width="9.5" height="9.5" x="125.25" y="75.25" fill="none" stroke-width="0.5" stroke="black"></rect><rect width="9.5" height="9.5" x="125.25" y="85.25" fill="none" stroke-width="0.5" stroke="black"></rect><rect width="9.5" height="9.5" x="135.25" y="15.25" fill="none" stroke-width="0.5" stroke="black"></rect><rect width="9.5" height="9.5" x="135.25" y="25.25" fill="none" stroke-width="0.5" stroke="black"></rect><rect width="9.5" height="9.5" x="135.25" y="35.25" fill="none" stroke-width="0.5" stroke="black"></rect><rect width="9.5" height="9.5" x="135.25" y="45.25" fill="none" stroke-width="0.5" stroke="black"></rect><rect width="9.5" height="9.5" x="135.25" y="55.25" fill="none" stroke-width="0.5" stroke="black"></rect><rect width="9.5" height="9.5" x="135.25" y="65.25" fill="none" stroke-width="0.5" stroke="black"></rect><rect width="9.5" height="9.5" x="135.25" y="75.25" fill="none" stroke-width="0.5" stroke="black"></rect><rect width="9.5" height="9.5" x="135.25" y="85.25" fill="none" stroke-width="0.5" stroke="black"></rect><rect width="9.5" height="9.5" x="145.25" y="15.25" fill="none" stroke-width="0.5" stroke="black"></rect><rect width="9.5" height="9.5" x="145.25" y="25.25" fill="none" stroke-width="0.5" stroke="black"></rect><rect width="9.5" height="9.5" x="145.25" y="35.25" fill="none" stroke-width="0.5" stroke="black"></rect><rect width="9.5" height="9.5" x="145.25" y="45.25" fill="none" stroke-width="0.5" stroke="black"></rect><rect width="9.5" height="9.5" x="145.25" y="55.25" fill="none" stroke-width="0.5" stroke="black"></rect><rect width="9.5" height="9.5" x="145.25" y="65.25" fill="none" stroke-width="0.5" stroke="black"></rect><rect width="9.5" height="9.5" x="145.25" y="75.25" fill="none" stroke-width="0.5" stroke="black"></rect><rect width="9.5" height="9.5" x="145.25" y="85.25" fill="none" stroke-width="0.5" stroke="black"></rect><rect width="9.5" height="9.5" x="155.25" y="15.25" fill="none" stroke-width="0.5" stroke="black"></rect><rect width="9.5" height="9.5" x="155.25" y="25.25" fill="none" stroke-width="0.5" stroke="black"></rect><rect width="9.5" height="9.5" x="155.25" y="35.25" fill="none" stroke-width="0.5" stroke="black"></rect><rect width="9.5" height="9.5" x="155.25" y="45.25" fill="none" stroke-width="0.5" stroke="black"></rect><rect width="9.5" height="9.5" x="155.25" y="55.25" fill="none" stroke-width="0.5" stroke="black"></rect><rect width="9.5" height="9.5" x="155.25" y="65.25" fill="none" stroke-width="0.5" stroke="black"></rect><rect width="9.5" height="9.5" x="155.25" y="75.25" fill="none" stroke-width="0.5" stroke="black"></rect><rect width="9.5" height="9.5" x="155.25" y="85.25" fill="none" stroke-width="0.5" stroke="black"></rect><rect width="9.5" height="9.5" x="165.25" y="15.25" fill="none" stroke-width="0.5" stroke="black"></rect><rect width="9.5" height="9.5" x="165.25" y="25.25" fill="none" stroke-width="0.5" stroke="black"></rect><rect width="9.5" height="9.5" x="165.25" y="35.25" fill="none" stroke-width="0.5" stroke="black"></rect><rect width="9.5" height="9.5" x="165.25" y="45.25" fill="none" stroke-width="0.5" stroke="black"></rect><rect width="9.5" height="9.5" x="165.25" y="55.25" fill="none" stroke-width="0.5" stroke="black"></rect><rect width="9.5" height="9.5" x="165.25" y="65.25" fill="none" stroke-width="0.5" stroke="black"></rect><rect width="9.5" height="9.5" x="165.25" y="75.25" fill="none" stroke-width="0.5" stroke="black"></rect><rect width="9.5" height="9.5" x="165.25" y="85.25" fill="none" stroke-width="0.5" stroke="black"></rect><rect width="9.5" height="9.5" x="175.25" y="15.25" fill="none" stroke-width="0.5" stroke="black"></rect><rect width="9.5" height="9.5" x="175.25" y="25.25" fill="none" stroke-width="0.5" stroke="black"></rect><rect width="9.5" height="9.5" x="175.25" y="35.25" fill="none" stroke-width="0.5" stroke="black"></rect><rect width="9.5" height="9.5" x="175.25" y="45.25" fill="none" stroke-width="0.5" stroke="black"></rect><rect width="9.5" height="9.5" x="175.25" y="55.25" fill="none" stroke-width="0.5" stroke="black"></rect><rect width="9.5" height="9.5" x="175.25" y="65.25" fill="none" stroke-width="0.5" stroke="black"></rect><rect width="9.5" height="9.5" x="175.25" y="75.25" fill="none" stroke-width="0.5" stroke="black"></rect><rect width="9.5" height="9.5" x="175.25" y="85.25" fill="none" stroke-width="0.5" stroke="black"></rect><rect width="9.5" height="9.5" x="185.25" y="15.25" fill="none" stroke-width="0.5" stroke="black"></rect><rect width="9.5" height="9.5" x="185.25" y="25.25" fill="none" stroke-width="0.5" stroke="black"></rect><rect width="9.5" height="9.5" x="185.25" y="35.25" fill="none" stroke-width="0.5" stroke="black"></rect><rect width="9.5" height="9.5" x="185.25" y="45.25" fill="none" stroke-width="0.5" stroke="black"></rect><rect width="9.5" height="9.5" x="185.25" y="55.25" fill="none" stroke-width="0.5" stroke="black"></rect><rect width="9.5" height="9.5" x="185.25" y="65.25" fill="none" stroke-width="0.5" stroke="black"></rect><rect width="9.5" height="9.5" x="185.25" y="75.25" fill="none" stroke-width="0.5" stroke="black"></rect><rect width="9.5" height="9.5" x="185.25" y="85.25" fill="none" stroke-width="0.5" stroke="black"></rect><rect width="9.5" height="9.5" x="195.25" y="15.25" fill="none" stroke-width="0.5" stroke="black"></rect><rect width="9.5" height="9.5" x="195.25" y="25.25" fill="none" stroke-width="0.5" stroke="black"></rect><rect width="9.5" height="9.5" x="195.25" y="35.25" fill="none" stroke-width="0.5" stroke="black"></rect><rect width="9.5" height="9.5" x="195.25" y="45.25" fill="none" stroke-width="0.5" stroke="black"></rect><rect width="9.5" height="9.5" x="195.25" y="55.25" fill="none" stroke-width="0.5" stroke="black"></rect><rect width="9.5" height="9.5" x="195.25" y="65.25" fill="none" stroke-width="0.5" stroke="black"></rect><rect width="9.5" height="9.5" x="195.25" y="75.25" fill="none" stroke-width="0.5" stroke="black"></rect><rect width="9.5" height="9.5" x="195.25" y="85.25" fill="none" stroke-width="0.5" stroke="black"></rect><rect width="9.5" height="9.5" x="205.25" y="15.25" fill="none" stroke-width="0.5" stroke="black"></rect><rect width="9.5" height="9.5" x="205.25" y="25.25" fill="none" stroke-width="0.5" stroke="black"></rect><rect width="9.5" height="9.5" x="205.25" y="35.25" fill="none" stroke-width="0.5" stroke="black"></rect><rect width="9.5" height="9.5" x="205.25" y="45.25" fill="none" stroke-width="0.5" stroke="black"></rect><rect width="9.5" height="9.5" x="205.25" y="55.25" fill="none" stroke-width="0.5" stroke="black"></rect><rect width="9.5" height="9.5" x="205.25" y="65.25" fill="none" stroke-width="0.5" stroke="black"></rect><rect width="9.5" height="9.5" x="205.25" y="75.25" fill="none" stroke-width="0.5" stroke="black"></rect><rect width="9.5" height="9.5" x="205.25" y="85.25" fill="none" stroke-width="0.5" stroke="black"></rect><rect width="9.5" height="9.5" x="215.25" y="15.25" fill="none" stroke-width="0.5" stroke="black"></rect><rect width="9.5" height="9.5" x="215.25" y="25.25" fill="none" stroke-width="0.5" stroke="black"></rect><rect width="9.5" height="9.5" x="215.25" y="35.25" fill="none" stroke-width="0.5" stroke="black"></rect><rect width="9.5" height="9.5" x="215.25" y="45.25" fill="none" stroke-width="0.5" stroke="black"></rect><rect width="9.5" height="9.5" x="215.25" y="55.25" fill="none" stroke-width="0.5" stroke="black"></rect><rect width="9.5" height="9.5" x="215.25" y="65.25" fill="none" stroke-width="0.5" stroke="black"></rect><rect width="9.5" height="9.5" x="215.25" y="75.25" fill="none" stroke-width="0.5" stroke="black"></rect><rect width="9.5" height="9.5" x="215.25" y="85.25" fill="none" stroke-width="0.5" stroke="black"></rect><rect width="9.5" height="9.5" x="225.25" y="15.25" fill="none" stroke-width="0.5" stroke="black"></rect><rect width="9.5" height="9.5" x="225.25" y="25.25" fill="none" stroke-width="0.5" stroke="black"></rect><rect width="9.5" height="9.5" x="225.25" y="35.25" fill="none" stroke-width="0.5" stroke="black"></rect><rect width="9.5" height="9.5" x="225.25" y="45.25" fill="none" stroke-width="0.5" stroke="black"></rect><rect width="9.5" height="9.5" x="225.25" y="55.25" fill="none" stroke-width="0.5" stroke="black"></rect><rect width="9.5" height="9.5" x="225.25" y="65.25" fill="none" stroke-width="0.5" stroke="black"></rect><rect width="9.5" height="9.5" x="225.25" y="75.25" fill="none" stroke-width="0.5" stroke="black"></rect><rect width="9.5" height="9.5" x="225.25" y="85.25" fill="none" stroke-width="0.5" stroke="black"></rect><rect width="9.5" height="9.5" x="235.25" y="15.25" fill="none" stroke-width="0.5" stroke="black"></rect><rect width="9.5" height="9.5" x="235.25" y="25.25" fill="none" stroke-width="0.5" stroke="black"></rect><rect width="9.5" height="9.5" x="235.25" y="35.25" fill="none" stroke-width="0.5" stroke="black"></rect><rect width="9.5" height="9.5" x="235.25" y="45.25" fill="none" stroke-width="0.5" stroke="black"></rect><rect width="9.5" height="9.5" x="235.25" y="55.25" fill="none" stroke-width="0.5" stroke="black"></rect><rect width="9.5" height="9.5" x="235.25" y="65.25" fill="none" stroke-width="0.5" stroke="black"></rect><rect width="9.5" height="9.5" x="235.25" y="75.25" fill="none" stroke-width="0.5" stroke="black"></rect><rect width="9.5" height="9.5" x="235.25" y="85.25" fill="none" stroke-width="0.5" stroke="black"></rect><rect width="9.5" height="9.5" x="245.25" y="15.25" fill="none" stroke-width="0.5" stroke="black"></rect><rect width="9.5" height="9.5" x="245.25" y="25.25" fill="none" stroke-width="0.5" stroke="black"></rect><rect width="9.5" height="9.5" x="245.25" y="35.25" fill="none" stroke-width="0.5" stroke="black"></rect><rect width="9.5" height="9.5" x="245.25" y="45.25" fill="none" stroke-width="0.5" stroke="black"></rect><rect width="9.5" height="9.5" x="245.25" y="55.25" fill="none" stroke-width="0.5" stroke="black"></rect><rect width="9.5" height="9.5" x="245.25" y="65.25" fill="none" stroke-width="0.5" stroke="black"></rect><rect width="9.5" height="9.5" x="245.25" y="75.25" fill="none" stroke-width="0.5" stroke="black"></rect><rect width="9.5" height="9.5" x="245.25" y="85.25" fill="none" stroke-width="0.5" stroke="black"></rect><rect width="9.5" height="9.5" x="255.25" y="15.25" fill="none" stroke-width="0.5" stroke="black"></rect><rect width="9.5" height="9.5" x="255.25" y="25.25" fill="none" stroke-width="0.5" stroke="black"></rect><rect width="9.5" height="9.5" x="255.25" y="35.25" fill="none" stroke-width="0.5" stroke="black"></rect><rect width="9.5" height="9.5" x="255.25" y="45.25" fill="none" stroke-width="0.5" stroke="black"></rect><rect width="9.5" height="9.5" x="255.25" y="55.25" fill="none" stroke-width="0.5" stroke="black"></rect><rect width="9.5" height="9.5" x="255.25" y="65.25" fill="none" stroke-width="0.5" stroke="black"></rect><rect width="9.5" height="9.5" x="255.25" y="75.25" fill="none" stroke-width="0.5" stroke="black"></rect><rect width="9.5" height="9.5" x="255.25" y="85.25" fill="none" stroke-width="0.5" stroke="black"></rect><rect width="9.5" height="9.5" x="265.25" y="15.25" fill="none" stroke-width="0.5" stroke="black"></rect><rect width="9.5" height="9.5" x="265.25" y="25.25" fill="none" stroke-width="0.5" stroke="black"></rect><rect width="9.5" height="9.5" x="265.25" y="35.25" fill="none" stroke-width="0.5" stroke="black"></rect><rect width="9.5" height="9.5" x="265.25" y="45.25" fill="none" stroke-width="0.5" stroke="black"></rect><rect width="9.5" height="9.5" x="265.25" y="55.25" fill="none" stroke-width="0.5" stroke="black"></rect><rect width="9.5" height="9.5" x="265.25" y="65.25" fill="none" stroke-width="0.5" stroke="black"></rect><rect width="9.5" height="9.5" x="265.25" y="75.25" fill="none" stroke-width="0.5" stroke="black"></rect><rect width="9.5" height="9.5" x="265.25" y="85.25" fill="none" stroke-width="0.5" stroke="black"></rect><rect width="9.5" height="9.5" x="275.25" y="15.25" fill="none" stroke-width="0.5" stroke="black"></rect><rect width="9.5" height="9.5" x="275.25" y="25.25" fill="none" stroke-width="0.5" stroke="black"></rect><rect width="9.5" height="9.5" x="275.25" y="35.25" fill="none" stroke-width="0.5" stroke="black"></rect><rect width="9.5" height="9.5" x="275.25" y="45.25" fill="none" stroke-width="0.5" stroke="black"></rect><rect width="9.5" height="9.5" x="275.25" y="55.25" fill="none" stroke-width="0.5" stroke="black"></rect><rect width="9.5" height="9.5" x="275.25" y="65.25" fill="none" stroke-width="0.5" stroke="black"></rect><rect width="9.5" height="9.5" x="275.25" y="75.25" fill="none" stroke-width="0.5" stroke="black"></rect><rect width="9.5" height="9.5" x="275.25" y="85.25" fill="none" stroke-width="0.5" stroke="black"></rect><rect width="9.5" height="9.5" x="285.25" y="15.25" fill="none" stroke-width="0.5" stroke="black"></rect><rect width="9.5" height="9.5" x="285.25" y="25.25" fill="none" stroke-width="0.5" stroke="black"></rect><rect width="9.5" height="9.5" x="285.25" y="35.25" fill="none" stroke-width="0.5" stroke="black"></rect><rect width="9.5" height="9.5" x="285.25" y="45.25" fill="none" stroke-width="0.5" stroke="black"></rect><rect width="9.5" height="9.5" x="285.25" y="55.25" fill="none" stroke-width="0.5" stroke="black"></rect><rect width="9.5" height="9.5" x="285.25" y="65.25" fill="none" stroke-width="0.5" stroke="black"></rect><rect width="9.5" height="9.5" x="285.25" y="75.25" fill="none" stroke-width="0.5" stroke="black"></rect><rect width="9.5" height="9.5" x="285.25" y="85.25" fill="none" stroke-width="0.5" stroke="black"></rect><rect width="9.5" height="9.5" x="295.25" y="15.25" fill="none" stroke-width="0.5" stroke="black"></rect><rect width="9.5" height="9.5" x="295.25" y="25.25" fill="none" stroke-width="0.5" stroke="black"></rect><rect width="9.5" height="9.5" x="295.25" y="35.25" fill="none" stroke-width="0.5" stroke="black"></rect><rect width="9.5" height="9.5" x="295.25" y="45.25" fill="none" stroke-width="0.5" stroke="black"></rect><rect width="9.5" height="9.5" x="295.25" y="55.25" fill="none" stroke-width="0.5" stroke="black"></rect><rect width="9.5" height="9.5" x="295.25" y="65.25" fill="none" stroke-width="0.5" stroke="black"></rect><rect width="9.5" height="9.5" x="295.25" y="75.25" fill="none" stroke-width="0.5" stroke="black"></rect><rect width="9.5" height="9.5" x="295.25" y="85.25" fill="none" stroke-width="0.5" stroke="black"></rect><rect width="9.5" height="9.5" x="305.25" y="15.25" fill="none" stroke-width="0.5" stroke="black"></rect><rect width="9.5" height="9.5" x="305.25" y="25.25" fill="none" stroke-width="0.5" stroke="black"></rect><rect width="9.5" height="9.5" x="305.25" y="35.25" fill="none" stroke-width="0.5" stroke="black"></rect><rect width="9.5" height="9.5" x="305.25" y="45.25" fill="none" stroke-width="0.5" stroke="black"></rect><rect width="9.5" height="9.5" x="305.25" y="55.25" fill="none" stroke-width="0.5" stroke="black"></rect><rect width="9.5" height="9.5" x="305.25" y="65.25" fill="none" stroke-width="0.5" stroke="black"></rect><rect width="9.5" height="9.5" x="305.25" y="75.25" fill="none" stroke-width="0.5" stroke="black"></rect><rect width="9.5" height="9.5" x="305.25" y="85.25" fill="none" stroke-width="0.5" stroke="black"></rect><rect width="9.5" height="9.5" x="315.25" y="15.25" fill="none" stroke-width="0.5" stroke="black"></rect><rect width="9.5" height="9.5" x="315.25" y="25.25" fill="none" stroke-width="0.5" stroke="black"></rect><rect width="9.5" height="9.5" x="315.25" y="35.25" fill="none" stroke-width="0.5" stroke="black"></rect><rect width="9.5" height="9.5" x="315.25" y="45.25" fill="none" stroke-width="0.5" stroke="black"></rect><rect width="9.5" height="9.5" x="315.25" y="55.25" fill="none" stroke-width="0.5" stroke="black"></rect><rect width="9.5" height="9.5" x="315.25" y="65.25" fill="none" stroke-width="0.5" stroke="black"></rect><rect width="9.5" height="9.5" x="315.25" y="75.25" fill="none" stroke-width="0.5" stroke="black"></rect><rect width="9.5" height="9.5" x="315.25" y="85.25" fill="none" stroke-width="0.5" stroke="black"></rect><rect width="9.5" height="9.5" x="325.25" y="15.25" fill="none" stroke-width="0.5" stroke="black"></rect><rect width="9.5" height="9.5" x="325.25" y="25.25" fill="none" stroke-width="0.5" stroke="black"></rect><rect width="9.5" height="9.5" x="325.25" y="35.25" fill="none" stroke-width="0.5" stroke="black"></rect><rect width="9.5" height="9.5" x="325.25" y="45.25" fill="none" stroke-width="0.5" stroke="black"></rect><rect width="9.5" height="9.5" x="325.25" y="55.25" fill="none" stroke-width="0.5" stroke="black"></rect><rect width="9.5" height="9.5" x="325.25" y="65.25" fill="none" stroke-width="0.5" stroke="black"></rect><rect width="9.5" height="9.5" x="325.25" y="75.25" fill="none" stroke-width="0.5" stroke="black"></rect><rect width="9.5" height="9.5" x="325.25" y="85.25" fill="none" stroke-width="0.5" stroke="black"></rect></g></svg>